<mxfile host="app.diagrams.net" modified="2023-04-26T15:27:02.040Z" agent="Mozilla/5.0 (X11; Linux x86_64) AppleWebKit/537.36 (KHTML, like Gecko) Chrome/112.0.0.0 Safari/537.36" etag="j3FDD6ZSH6qRwXc_F9HS" version="21.1.4" type="device">
  <diagram id="C5RBs43oDa-KdzZeNtuy" name="Page-1">
    <mxGraphModel dx="2901" dy="1141" grid="1" gridSize="10" guides="1" tooltips="1" connect="1" arrows="1" fold="1" page="1" pageScale="1" pageWidth="827" pageHeight="1169" math="0" shadow="0">
      <root>
        <mxCell id="WIyWlLk6GJQsqaUBKTNV-0" />
        <mxCell id="WIyWlLk6GJQsqaUBKTNV-1" parent="WIyWlLk6GJQsqaUBKTNV-0" />
        <mxCell id="GafMU0c75heiuo1HpW_n-7" value="Data Layer" style="rounded=0;whiteSpace=wrap;html=1;strokeWidth=1;verticalAlign=top;fontStyle=1;fontSize=15;fillColor=#dae8fc;strokeColor=#6c8ebf;flipH=1;flipV=1;" parent="WIyWlLk6GJQsqaUBKTNV-1" vertex="1">
          <mxGeometry y="380" width="280" height="380" as="geometry" />
        </mxCell>
        <mxCell id="WIyWlLk6GJQsqaUBKTNV-11" value="Repair Lamp" style="rounded=1;whiteSpace=wrap;html=1;fontSize=12;glass=0;strokeWidth=1;shadow=0;" parent="WIyWlLk6GJQsqaUBKTNV-1" vertex="1">
          <mxGeometry x="414" y="400" width="120" height="40" as="geometry" />
        </mxCell>
        <mxCell id="fg_L--qd0xywea7N1QJT-0" value="Elasticsearch DB" style="shape=cylinder3;whiteSpace=wrap;html=1;boundedLbl=1;backgroundOutline=1;size=15;" parent="WIyWlLk6GJQsqaUBKTNV-1" vertex="1">
          <mxGeometry x="170" y="650" width="100" height="80" as="geometry" />
        </mxCell>
        <mxCell id="fg_L--qd0xywea7N1QJT-1" value="" style="rounded=0;html=1;jettySize=auto;orthogonalLoop=1;fontSize=11;endArrow=block;endFill=0;endSize=8;strokeWidth=1;shadow=0;labelBackgroundColor=none;edgeStyle=orthogonalEdgeStyle;exitX=0.5;exitY=1;exitDx=0;exitDy=0;entryX=0.5;entryY=0;entryDx=0;entryDy=0;entryPerimeter=0;startArrow=classic;startFill=1;" parent="WIyWlLk6GJQsqaUBKTNV-1" source="WIyWlLk6GJQsqaUBKTNV-3" target="fg_L--qd0xywea7N1QJT-0" edge="1">
          <mxGeometry x="0.0769" y="20" relative="1" as="geometry">
            <mxPoint as="offset" />
            <mxPoint x="280.0000000000002" y="260" as="sourcePoint" />
            <mxPoint x="280.0000000000002" y="300" as="targetPoint" />
            <Array as="points">
              <mxPoint x="220" y="570" />
              <mxPoint x="220" y="650" />
            </Array>
          </mxGeometry>
        </mxCell>
        <mxCell id="GafMU0c75heiuo1HpW_n-4" value="&lt;ul&gt;&lt;li&gt;Document storage&lt;/li&gt;&lt;li&gt;Executing queries&lt;/li&gt;&lt;/ul&gt;" style="shape=callout;whiteSpace=wrap;html=1;perimeter=calloutPerimeter;perimeterSpacing=0;rounded=1;position2=0.77;base=18;size=60;position=0.67;rotation=0;arcSize=18;align=left;verticalAlign=top;spacing=0;spacingRight=0;spacingLeft=-13;strokeWidth=1;fillColor=#f5f5f5;fontColor=#333333;strokeColor=#666666;direction=north;" parent="WIyWlLk6GJQsqaUBKTNV-1" vertex="1">
          <mxGeometry x="10" y="650" width="160" height="90" as="geometry" />
        </mxCell>
        <mxCell id="GafMU0c75heiuo1HpW_n-5" value="" style="rounded=1;whiteSpace=wrap;html=1;" parent="WIyWlLk6GJQsqaUBKTNV-1" vertex="1">
          <mxGeometry x="340" y="470" width="120" height="60" as="geometry" />
        </mxCell>
        <mxCell id="GafMU0c75heiuo1HpW_n-8" value="Backend Applications" style="rounded=0;whiteSpace=wrap;html=1;strokeWidth=1;verticalAlign=top;fontStyle=1;fontSize=15;fillColor=#fff2cc;strokeColor=#d6b656;flipH=1;flipV=1;" parent="WIyWlLk6GJQsqaUBKTNV-1" vertex="1">
          <mxGeometry x="300" y="380" width="280" height="380" as="geometry" />
        </mxCell>
        <mxCell id="GafMU0c75heiuo1HpW_n-9" value="Frontend" style="rounded=0;whiteSpace=wrap;html=1;strokeWidth=1;verticalAlign=top;fontStyle=1;fontSize=15;fillColor=#d5e8d4;strokeColor=#82b366;flipH=1;flipV=1;" parent="WIyWlLk6GJQsqaUBKTNV-1" vertex="1">
          <mxGeometry x="600" y="380" width="280" height="380" as="geometry" />
        </mxCell>
        <mxCell id="GafMU0c75heiuo1HpW_n-15" value="" style="rounded=0;html=1;jettySize=auto;orthogonalLoop=1;fontSize=11;endArrow=block;endFill=0;endSize=8;strokeWidth=1;shadow=0;labelBackgroundColor=none;edgeStyle=orthogonalEdgeStyle;entryX=0.5;entryY=0;entryDx=0;entryDy=0;startArrow=classic;startFill=1;" parent="WIyWlLk6GJQsqaUBKTNV-1" source="GafMU0c75heiuo1HpW_n-12" target="WIyWlLk6GJQsqaUBKTNV-3" edge="1">
          <mxGeometry x="0.0769" y="20" relative="1" as="geometry">
            <mxPoint as="offset" />
            <mxPoint x="620" y="555" as="sourcePoint" />
            <mxPoint x="230" y="660" as="targetPoint" />
            <Array as="points">
              <mxPoint x="590" y="555" />
              <mxPoint x="590" y="440" />
              <mxPoint x="220" y="440" />
            </Array>
          </mxGeometry>
        </mxCell>
        <mxCell id="GafMU0c75heiuo1HpW_n-16" value="" style="endArrow=classic;html=1;rounded=0;fontSize=15;entryX=0;entryY=0.5;entryDx=0;entryDy=0;" parent="WIyWlLk6GJQsqaUBKTNV-1" target="GafMU0c75heiuo1HpW_n-11" edge="1">
          <mxGeometry width="50" height="50" relative="1" as="geometry">
            <mxPoint x="590" y="496" as="sourcePoint" />
            <mxPoint x="640" y="470" as="targetPoint" />
          </mxGeometry>
        </mxCell>
        <mxCell id="GafMU0c75heiuo1HpW_n-18" value="&lt;ul&gt;&lt;li&gt;Web user interface&lt;/li&gt;&lt;/ul&gt;" style="shape=callout;whiteSpace=wrap;html=1;perimeter=calloutPerimeter;perimeterSpacing=0;rounded=1;position2=0.5;base=10;size=40;position=0.25;rotation=0;arcSize=18;align=left;verticalAlign=top;spacing=0;spacingRight=0;spacingLeft=-13;strokeWidth=1;fillColor=#f5f5f5;fontColor=#333333;strokeColor=#666666;direction=south;spacingBottom=0;spacingTop=-11;" parent="WIyWlLk6GJQsqaUBKTNV-1" vertex="1">
          <mxGeometry x="720" y="420" width="150" height="40" as="geometry" />
        </mxCell>
        <mxCell id="GafMU0c75heiuo1HpW_n-17" value="" style="endArrow=block;html=1;rounded=0;fontSize=15;entryX=0;entryY=0.5;entryDx=0;entryDy=0;endFill=1;" parent="WIyWlLk6GJQsqaUBKTNV-1" target="GafMU0c75heiuo1HpW_n-10" edge="1">
          <mxGeometry width="50" height="50" relative="1" as="geometry">
            <mxPoint x="590" y="440" as="sourcePoint" />
            <mxPoint x="630" y="515" as="targetPoint" />
          </mxGeometry>
        </mxCell>
        <mxCell id="GafMU0c75heiuo1HpW_n-10" value="amcat4client" style="rounded=1;whiteSpace=wrap;html=1;fontSize=12;glass=0;strokeWidth=1;shadow=0;" parent="WIyWlLk6GJQsqaUBKTNV-1" vertex="1">
          <mxGeometry x="620" y="420" width="100" height="40" as="geometry" />
        </mxCell>
        <mxCell id="GafMU0c75heiuo1HpW_n-19" value="&lt;ul&gt;&lt;li&gt;Python client&lt;/li&gt;&lt;/ul&gt;" style="shape=callout;whiteSpace=wrap;html=1;perimeter=calloutPerimeter;perimeterSpacing=0;rounded=1;position2=0.5;base=10;size=40;position=0.25;rotation=0;arcSize=18;align=left;verticalAlign=top;spacing=0;spacingRight=0;spacingLeft=-13;strokeWidth=1;fillColor=#f5f5f5;fontColor=#333333;strokeColor=#666666;direction=south;spacingBottom=0;spacingTop=-11;" parent="WIyWlLk6GJQsqaUBKTNV-1" vertex="1">
          <mxGeometry x="720" y="478" width="150" height="40" as="geometry" />
        </mxCell>
        <mxCell id="GafMU0c75heiuo1HpW_n-20" value="&lt;ul&gt;&lt;li&gt;R client&lt;/li&gt;&lt;/ul&gt;" style="shape=callout;whiteSpace=wrap;html=1;perimeter=calloutPerimeter;perimeterSpacing=0;rounded=1;position2=0.5;base=10;size=40;position=0.25;rotation=0;arcSize=18;align=left;verticalAlign=top;spacing=0;spacingRight=0;spacingLeft=-13;strokeWidth=1;fillColor=#f5f5f5;fontColor=#333333;strokeColor=#666666;direction=south;spacingBottom=0;spacingTop=-11;" parent="WIyWlLk6GJQsqaUBKTNV-1" vertex="1">
          <mxGeometry x="720" y="535" width="150" height="40" as="geometry" />
        </mxCell>
        <mxCell id="GafMU0c75heiuo1HpW_n-11" value="amcat4py" style="rounded=1;whiteSpace=wrap;html=1;fontSize=12;glass=0;strokeWidth=1;shadow=0;" parent="WIyWlLk6GJQsqaUBKTNV-1" vertex="1">
          <mxGeometry x="620" y="476" width="100" height="40" as="geometry" />
        </mxCell>
        <mxCell id="GafMU0c75heiuo1HpW_n-22" value="" style="endArrow=classic;html=1;rounded=0;fontSize=15;entryX=0;entryY=0.5;entryDx=0;entryDy=0;" parent="WIyWlLk6GJQsqaUBKTNV-1" edge="1">
          <mxGeometry width="50" height="50" relative="1" as="geometry">
            <mxPoint x="290" y="630" as="sourcePoint" />
            <mxPoint x="460" y="629.76" as="targetPoint" />
          </mxGeometry>
        </mxCell>
        <mxCell id="GafMU0c75heiuo1HpW_n-24" value="&lt;ul&gt;&lt;li&gt;annotation backend&lt;/li&gt;&lt;/ul&gt;" style="shape=callout;whiteSpace=wrap;html=1;perimeter=calloutPerimeter;perimeterSpacing=0;rounded=1;position2=0.75;base=10;size=40;position=0.5;rotation=0;arcSize=18;align=left;verticalAlign=top;spacing=0;spacingRight=0;spacingLeft=-13;strokeWidth=1;fillColor=#f5f5f5;fontColor=#333333;strokeColor=#666666;direction=north;spacingBottom=0;spacingTop=-11;" parent="WIyWlLk6GJQsqaUBKTNV-1" vertex="1">
          <mxGeometry x="310" y="610" width="150" height="40" as="geometry" />
        </mxCell>
        <mxCell id="GafMU0c75heiuo1HpW_n-26" value="" style="edgeStyle=orthogonalEdgeStyle;rounded=0;orthogonalLoop=1;jettySize=auto;html=1;fontSize=15;endArrow=none;endFill=0;" parent="WIyWlLk6GJQsqaUBKTNV-1" source="GafMU0c75heiuo1HpW_n-25" target="fg_L--qd0xywea7N1QJT-0" edge="1">
          <mxGeometry relative="1" as="geometry" />
        </mxCell>
        <mxCell id="GafMU0c75heiuo1HpW_n-13" value="annotinder" style="rounded=1;whiteSpace=wrap;html=1;fontSize=12;glass=0;strokeWidth=1;shadow=0;" parent="WIyWlLk6GJQsqaUBKTNV-1" vertex="1">
          <mxGeometry x="460" y="610" width="100" height="40" as="geometry" />
        </mxCell>
        <mxCell id="GafMU0c75heiuo1HpW_n-21" value="" style="rounded=0;html=1;jettySize=auto;orthogonalLoop=1;fontSize=11;endArrow=block;endFill=0;endSize=8;strokeWidth=1;shadow=0;labelBackgroundColor=none;edgeStyle=orthogonalEdgeStyle;entryX=1;entryY=0.5;entryDx=0;entryDy=0;startArrow=classic;startFill=1;exitX=0;exitY=0.5;exitDx=0;exitDy=0;" parent="WIyWlLk6GJQsqaUBKTNV-1" source="GafMU0c75heiuo1HpW_n-14" target="WIyWlLk6GJQsqaUBKTNV-3" edge="1">
          <mxGeometry x="0.0769" y="20" relative="1" as="geometry">
            <mxPoint as="offset" />
            <mxPoint x="630" y="565.0344827586207" as="sourcePoint" />
            <mxPoint x="230" y="540" as="targetPoint" />
            <Array as="points">
              <mxPoint x="290" y="720" />
              <mxPoint x="290" y="550" />
            </Array>
          </mxGeometry>
        </mxCell>
        <mxCell id="GafMU0c75heiuo1HpW_n-25" value="&lt;ul&gt;&lt;li&gt;pre-processing backend&lt;/li&gt;&lt;/ul&gt;" style="shape=callout;whiteSpace=wrap;html=1;perimeter=calloutPerimeter;perimeterSpacing=0;rounded=1;position2=0.75;base=10;size=40;position=0.5;rotation=0;arcSize=18;align=left;verticalAlign=top;spacing=0;spacingRight=0;spacingLeft=-13;strokeWidth=1;fillColor=#f5f5f5;fontColor=#333333;strokeColor=#666666;direction=north;spacingBottom=0;spacingTop=-11;" parent="WIyWlLk6GJQsqaUBKTNV-1" vertex="1">
          <mxGeometry x="310" y="700" width="150" height="40" as="geometry" />
        </mxCell>
        <mxCell id="GafMU0c75heiuo1HpW_n-14" value="nlpipe" style="rounded=1;whiteSpace=wrap;html=1;fontSize=12;glass=0;strokeWidth=1;shadow=0;" parent="WIyWlLk6GJQsqaUBKTNV-1" vertex="1">
          <mxGeometry x="460" y="700" width="100" height="40" as="geometry" />
        </mxCell>
        <mxCell id="GafMU0c75heiuo1HpW_n-30" value="" style="rounded=0;html=1;jettySize=auto;orthogonalLoop=1;fontSize=11;endArrow=block;endFill=0;endSize=8;strokeWidth=1;shadow=0;labelBackgroundColor=none;edgeStyle=orthogonalEdgeStyle;entryX=1;entryY=0.5;entryDx=0;entryDy=0;startArrow=classic;startFill=1;exitX=0;exitY=0.5;exitDx=0;exitDy=0;" parent="WIyWlLk6GJQsqaUBKTNV-1" source="GafMU0c75heiuo1HpW_n-27" target="GafMU0c75heiuo1HpW_n-13" edge="1">
          <mxGeometry x="0.0769" y="20" relative="1" as="geometry">
            <mxPoint as="offset" />
            <mxPoint x="630" y="565.0344827586207" as="sourcePoint" />
            <mxPoint x="230" y="540" as="targetPoint" />
            <Array as="points">
              <mxPoint x="590" y="608" />
              <mxPoint x="590" y="630" />
            </Array>
          </mxGeometry>
        </mxCell>
        <mxCell id="GafMU0c75heiuo1HpW_n-31" value="" style="endArrow=classic;html=1;rounded=0;fontSize=15;entryX=0;entryY=0.5;entryDx=0;entryDy=0;" parent="WIyWlLk6GJQsqaUBKTNV-1" target="GafMU0c75heiuo1HpW_n-28" edge="1">
          <mxGeometry width="50" height="50" relative="1" as="geometry">
            <mxPoint x="590" y="629.86" as="sourcePoint" />
            <mxPoint x="620" y="629.86" as="targetPoint" />
            <Array as="points">
              <mxPoint x="590" y="664" />
            </Array>
          </mxGeometry>
        </mxCell>
        <mxCell id="GafMU0c75heiuo1HpW_n-32" value="" style="rounded=0;html=1;jettySize=auto;orthogonalLoop=1;fontSize=11;endArrow=block;endFill=0;endSize=8;strokeWidth=1;shadow=0;labelBackgroundColor=none;edgeStyle=orthogonalEdgeStyle;startArrow=classic;startFill=1;" parent="WIyWlLk6GJQsqaUBKTNV-1" edge="1">
          <mxGeometry x="0.0769" y="20" relative="1" as="geometry">
            <mxPoint as="offset" />
            <mxPoint x="620" y="720" as="sourcePoint" />
            <mxPoint x="560" y="720" as="targetPoint" />
            <Array as="points">
              <mxPoint x="560" y="720" />
            </Array>
          </mxGeometry>
        </mxCell>
        <mxCell id="GafMU0c75heiuo1HpW_n-33" value="&lt;ul&gt;&lt;li&gt;AnnoTinder Web interface&lt;/li&gt;&lt;/ul&gt;" style="shape=callout;whiteSpace=wrap;html=1;perimeter=calloutPerimeter;perimeterSpacing=0;rounded=1;position2=0.5;base=10;size=40;position=0.25;rotation=0;arcSize=18;align=left;verticalAlign=top;spacing=0;spacingRight=0;spacingLeft=-13;strokeWidth=1;fillColor=#f5f5f5;fontColor=#333333;strokeColor=#666666;direction=south;spacingBottom=0;spacingTop=-11;" parent="WIyWlLk6GJQsqaUBKTNV-1" vertex="1">
          <mxGeometry x="720" y="585" width="150" height="40" as="geometry" />
        </mxCell>
        <mxCell id="GafMU0c75heiuo1HpW_n-34" value="&lt;ul&gt;&lt;li&gt;AnnoTinder R client&lt;/li&gt;&lt;/ul&gt;" style="shape=callout;whiteSpace=wrap;html=1;perimeter=calloutPerimeter;perimeterSpacing=0;rounded=1;position2=0.5;base=10;size=40;position=0.25;rotation=0;arcSize=18;align=left;verticalAlign=top;spacing=0;spacingRight=13;spacingLeft=-13;strokeWidth=1;fillColor=#f5f5f5;fontColor=#333333;strokeColor=#666666;direction=south;spacingBottom=0;spacingTop=-11;" parent="WIyWlLk6GJQsqaUBKTNV-1" vertex="1">
          <mxGeometry x="720" y="644" width="150" height="40" as="geometry" />
        </mxCell>
        <mxCell id="GafMU0c75heiuo1HpW_n-35" value="&lt;ul&gt;&lt;li&gt;nlpipe R client&lt;/li&gt;&lt;/ul&gt;" style="shape=callout;whiteSpace=wrap;html=1;perimeter=calloutPerimeter;perimeterSpacing=0;rounded=1;position2=0.5;base=10;size=40;position=0.25;rotation=0;arcSize=18;align=left;verticalAlign=top;spacing=0;spacingRight=13;spacingLeft=-13;strokeWidth=1;fillColor=#f5f5f5;fontColor=#333333;strokeColor=#666666;direction=south;spacingBottom=0;spacingTop=-11;" parent="WIyWlLk6GJQsqaUBKTNV-1" vertex="1">
          <mxGeometry x="720" y="700" width="150" height="40" as="geometry" />
        </mxCell>
        <mxCell id="GafMU0c75heiuo1HpW_n-29" value="nlpiper" style="rounded=1;whiteSpace=wrap;html=1;fontSize=12;glass=0;strokeWidth=1;shadow=0;" parent="WIyWlLk6GJQsqaUBKTNV-1" vertex="1">
          <mxGeometry x="620" y="700" width="100" height="40" as="geometry" />
        </mxCell>
        <mxCell id="GafMU0c75heiuo1HpW_n-28" value="&lt;div&gt;&lt;span style=&quot;background-color: initial;&quot;&gt;annotinder-r&lt;/span&gt;&lt;br&gt;&lt;/div&gt;" style="rounded=1;whiteSpace=wrap;html=1;fontSize=12;glass=0;strokeWidth=1;shadow=0;" parent="WIyWlLk6GJQsqaUBKTNV-1" vertex="1">
          <mxGeometry x="620" y="644" width="100" height="40" as="geometry" />
        </mxCell>
        <mxCell id="GafMU0c75heiuo1HpW_n-27" value="annotinder client" style="rounded=1;whiteSpace=wrap;html=1;fontSize=12;glass=0;strokeWidth=1;shadow=0;" parent="WIyWlLk6GJQsqaUBKTNV-1" vertex="1">
          <mxGeometry x="620" y="588" width="100" height="40" as="geometry" />
        </mxCell>
        <mxCell id="GafMU0c75heiuo1HpW_n-12" value="amcat4r" style="rounded=1;whiteSpace=wrap;html=1;fontSize=12;glass=0;strokeWidth=1;shadow=0;" parent="WIyWlLk6GJQsqaUBKTNV-1" vertex="1">
          <mxGeometry x="620" y="532" width="100" height="40" as="geometry" />
        </mxCell>
        <mxCell id="KNGb-2jXVh8It6iDMwTt-0" value="&lt;ul&gt;&lt;li&gt;API&lt;/li&gt;&lt;li&gt;Document access control&lt;/li&gt;&lt;/ul&gt;" style="shape=callout;whiteSpace=wrap;html=1;perimeter=calloutPerimeter;perimeterSpacing=0;rounded=1;position2=0.77;base=18;size=60;position=0.67;rotation=0;arcSize=18;align=left;verticalAlign=top;spacing=0;spacingRight=0;spacingLeft=-13;strokeWidth=1;fillColor=#f5f5f5;fontColor=#333333;strokeColor=#666666;direction=north;" parent="WIyWlLk6GJQsqaUBKTNV-1" vertex="1">
          <mxGeometry x="10" y="525" width="160" height="90" as="geometry" />
        </mxCell>
        <UserObject label="amcat4" link="https://github.com/ccs-amsterdam/amcat4" linkTarget="_blank" id="WIyWlLk6GJQsqaUBKTNV-3">
          <mxCell style="rounded=1;whiteSpace=wrap;html=1;fontSize=12;glass=0;strokeWidth=1;shadow=0;imageWidth=24;" parent="WIyWlLk6GJQsqaUBKTNV-1" vertex="1">
            <mxGeometry x="170" y="530" width="100" height="40" as="geometry" />
          </mxCell>
        </UserObject>
      </root>
    </mxGraphModel>
  </diagram>
</mxfile>
